<svg fill="hsl(6.9, 74%, 34.7%)" height="512px" width="512px" version="1.1" id="Layer_1" xmlns="http://www.w3.org/2000/svg" xmlns:xlink="http://www.w3.org/1999/xlink" 
	 viewBox="0 0 511.999 511.999" xml:space="preserve">
<g>
	<g>
		<path d="M470.956,433.845c-1.192-2.06-2.501-4.029-3.907-5.915v-33.666c21.175-4.52,37.043-22.455,37.043-43.844v-34.177
			c0-5.771-4.678-10.449-10.449-10.449c-4.341,0-8.545,0.59-12.549,1.666c-7.463-12.108-17.602-20.058-18.089-20.435
			c-3.769-2.924-9.039-2.923-12.808,0c-0.487,0.377-10.627,8.327-18.089,20.434c-4.003-1.075-8.207-1.664-12.547-1.664
			c-2.773,0-5.432,1.102-7.392,3.064c-1.96,1.961-3.059,4.622-3.057,7.395l0.031,34.166c0,21.386,15.853,39.32,37.008,43.842v15.923
			c-8.519-4.415-18.115-6.856-28.104-6.856c-16.4,0-31.604,6.497-42.763,17.422V316.655c21.175-4.519,37.043-22.455,37.043-43.844
			v-34.177c0-5.771-4.678-10.449-10.449-10.449c-4.341,0-8.545,0.59-12.548,1.666c-7.463-12.108-17.603-20.058-18.09-20.435
			c-3.769-2.924-9.039-2.923-12.808,0c-0.487,0.377-10.627,8.326-18.088,20.434c-4.003-1.075-8.208-1.666-12.547-1.666
			c-2.773,0-5.432,1.102-7.392,3.064c-1.96,1.961-3.059,4.622-3.057,7.395l0.031,34.167c0,21.386,15.852,39.319,37.008,43.842
			v117.026c-0.51-0.018-1.018-0.049-1.529-0.049c-25.063,0-45.453,20.39-45.453,45.453c0,10.654,3.767,21.015,10.606,29.177
			c1.985,2.37,4.918,3.738,8.009,3.738h167.365c3.091,0,6.024-1.369,8.009-3.738c6.839-8.162,10.606-18.523,10.606-29.177
			C511.999,455.51,493.958,436.068,470.956,433.845z M456.599,309.647c1.928,2.1,4.027,4.664,5.919,7.546
			c-2.146,1.82-4.133,3.813-5.915,5.975c-1.784-2.163-3.772-4.157-5.919-5.977C452.574,314.308,454.673,311.745,456.599,309.647z
			 M430.04,350.411l-0.02-21.666c9.385,3.853,16.028,12.712,16.127,23.001c0.055,5.731,4.717,10.349,10.449,10.349h0.015
			c5.731,0,10.393-4.616,10.449-10.348c0.099-10.293,6.746-19.156,16.134-23.007v21.68c0,13.039-12.178,24.056-26.594,24.056
			C442.202,374.477,430.04,363.46,430.04,350.411z M364.834,232.039c1.928,2.1,4.027,4.664,5.918,7.547
			c-2.145,1.819-4.133,3.813-5.915,5.974c-1.784-2.163-3.772-4.157-5.919-5.977C360.81,236.701,362.908,234.138,364.834,232.039z
			 M338.276,272.804l-0.02-21.666c9.385,3.852,16.028,12.712,16.127,23.001c0.055,5.731,4.717,10.349,10.449,10.349h0.014
			c5.731,0,10.393-4.616,10.449-10.348c0.1-10.292,6.746-19.156,16.135-23.007v21.681c0,13.039-12.178,24.056-26.594,24.056
			C350.438,296.869,338.276,285.853,338.276,272.804z M487.957,491.102H331.446c-2.046-3.648-3.144-7.79-3.144-12.016
			c0-13.54,11.015-24.555,24.555-24.555c4.191,0,8.331,1.078,11.972,3.119c2.721,1.523,5.982,1.752,8.888,0.625
			c2.908-1.13,5.159-3.498,6.139-6.459c5.46-16.501,20.807-27.587,38.19-27.587c15.975,0,30.444,9.465,36.86,24.112
			c1.753,4.003,5.811,6.507,10.177,6.238c0.484-0.028,0.971-0.048,1.462-0.048c13.54,0,24.555,11.015,24.555,24.555
			C491.102,483.312,490.003,487.454,487.957,491.102z"/>
	</g>
</g>
<g>
	<g>
		<path d="M511.985,65.829C511.985,29.531,482.454,0,446.156,0c-28.997,0-54.006,18.677-62.631,45.553
			c-25.115,0.292-48.128,14.749-59.551,36.838c-28.25,0.784-51.604,21.625-56.436,48.83h-50.916
			c-5.771,0-10.449,4.678-10.449,10.449c0,5.771,4.678,10.449,10.449,10.449h60.447c5.771,0,10.449-4.678,10.449-10.449
			c0-21.176,17.092-38.404,38.103-38.404c1.258,0,2.588,0.07,3.954,0.208c4.7,0.472,9.135-2.265,10.815-6.682
			c6.906-18.156,24.551-30.354,43.908-30.354c19.358,0,37.003,12.198,43.908,30.354c1.68,4.417,6.12,7.151,10.815,6.682
			c1.365-0.138,2.694-0.208,3.951-0.208c17.419,0,32.147,11.841,36.674,27.955h-124.27c-5.771,0-10.449,4.678-10.449,10.449
			c0,5.771,4.678,10.449,10.449,10.449h136.151c5.771,0,10.449-4.678,10.449-10.449c0-11.067-3.032-21.433-8.305-30.308
			C505.399,99.187,511.985,83.074,511.985,65.829z M479.903,95.473c-9.719-7.864-21.949-12.712-35.282-13.082
			c-8.364-16.177-22.949-28.26-40.021-33.686c6.773-16.564,22.964-27.807,41.556-27.807c24.775,0,44.931,20.156,44.931,44.931
			C491.087,76.932,487.081,87.348,479.903,95.473z"/>
	</g>
</g>
<g>
	<g>
		<path d="M121.668,24.085C113.236,9.43,97.384,0,80.201,0C63.018,0,47.166,9.43,38.735,24.085
			C17.095,25.781,0.004,44.014,0.004,66.182c0,5.771,4.678,10.449,10.449,10.449c5.771,0,10.449-4.678,10.449-10.449
			c0-11.76,9.48-21.328,21.133-21.328c0.694,0,1.437,0.04,2.208,0.117c4.699,0.479,9.132-2.265,10.813-6.682
			c3.956-10.402,14.061-17.39,25.145-17.39c11.084,0,21.191,6.988,25.147,17.391c1.679,4.415,6.109,7.156,10.813,6.682
			c0.77-0.077,1.512-0.117,2.206-0.117c7.895,0,14.793,4.391,18.421,10.879H61.388c-5.771,0-10.449,4.678-10.449,10.449
			s4.678,10.449,10.449,10.449h88.562c5.771,0,10.449-4.678,10.449-10.449C160.4,44.014,143.309,25.782,121.668,24.085z"/>
	</g>
</g>
<g>
	<g>
		<path d="M323.506,131.221h-0.163c-5.771,0-10.449,4.678-10.449,10.449s4.678,10.449,10.449,10.449h0.163
			c5.771,0,10.449-4.678,10.449-10.449C333.955,135.899,329.277,131.221,323.506,131.221z"/>
	</g>
</g>
<g>
	<g>
		<path d="M183.349,131.221h-0.163c-5.771,0-10.449,4.678-10.449,10.449c0,5.771,4.678,10.449,10.449,10.449h0.163
			c5.771,0,10.449-4.678,10.449-10.449C193.798,135.899,189.12,131.221,183.349,131.221z"/>
	</g>
</g>
<g>
	<g>
		<path d="M195.692,238.518c-16.709,0-30.303,13.593-30.303,30.302c0,16.709,13.594,30.302,30.303,30.302
			c16.708,0,30.301-13.594,30.301-30.302C225.993,252.111,212.4,238.518,195.692,238.518z M195.692,278.224
			c-5.187,0-9.405-4.219-9.405-9.404c0-5.185,4.219-9.404,9.405-9.404c5.185,0,9.403,4.219,9.403,9.404
			C205.095,274.005,200.877,278.224,195.692,278.224z"/>
	</g>
</g>
<g>
	<g>
		<path d="M310.113,350.717c-4.341,0-8.545,0.59-12.549,1.666c-7.463-12.108-17.602-20.058-18.089-20.435
			c-3.769-2.924-9.039-2.923-12.808,0c-0.487,0.377-10.628,8.327-18.089,20.434c-4.003-1.075-8.207-1.666-12.547-1.666
			c-2.773,0-5.432,1.102-7.392,3.064c-1.96,1.961-3.059,4.622-3.057,7.395l0.031,34.166c0,21.386,15.852,39.32,37.008,43.842v37.141
			l-4.081-4.081c-4.08-4.08-10.697-4.08-14.778,0c-4.08,4.08-4.08,10.697,0,14.778l4.081,4.081h-41.703V344.173
			c6.532-2.383,11.991-6.936,15.498-12.838c9.966,2.534,20.901-0.138,28.729-7.966c7.824-7.827,10.496-18.76,7.962-28.725
			c8.842-5.252,14.684-14.874,14.684-25.948c0-11.073-5.842-20.695-14.684-25.948c2.534-9.965-0.138-20.899-7.964-28.728
			c-7.827-7.826-18.76-10.499-28.727-7.963c-5.253-8.841-14.874-14.683-25.947-14.683c-11.073,0-20.695,5.843-25.948,14.684
			c-9.968-2.535-20.899,0.137-28.728,7.963c-7.826,7.828-10.499,18.761-7.963,28.727c-8.841,5.253-14.683,14.874-14.683,25.948
			c0,11.075,5.841,20.696,14.683,25.948c-2.535,9.967,0.138,20.9,7.964,28.727c7.826,7.826,18.759,10.499,28.727,7.963
			c3.507,5.902,8.966,10.455,15.499,12.839v146.929h-16.49c3.995-8.24,6.154-17.349,6.154-26.645
			c0-33.705-27.421-61.127-61.127-61.127c-18.986,0-36.575,8.876-47.974,23.266v-18.542c21.175-4.52,37.043-22.455,37.043-43.844
			v-34.177c0-5.771-4.678-10.449-10.449-10.449c-4.341,0-8.545,0.59-12.549,1.666c-7.463-12.108-17.602-20.058-18.089-20.435
			c-3.769-2.924-9.039-2.923-12.808,0c-0.487,0.377-10.627,8.327-18.089,20.434c-4.003-1.075-8.207-1.665-12.547-1.665
			c-2.773,0-5.432,1.102-7.392,3.064c-1.96,1.961-3.059,4.622-3.057,7.395l0.031,34.166c0,21.386,15.853,39.319,37.008,43.842
			v22.471C20.049,431.095,0,451.478,0,476.47c0,12.251,4.765,23.778,13.414,32.457c1.96,1.966,4.624,3.072,7.401,3.072h274.171
			c5.771,0,10.449-4.678,10.449-10.449c0-4.766-3.194-8.779-7.557-10.034l4.496-4.495c4.083-4.08,4.083-10.697,0.003-14.777
			c-4.08-4.081-10.697-4.079-14.777,0l-4.082,4.082v-37.14c21.175-4.52,37.043-22.455,37.043-43.844v-34.177
			C320.562,355.395,315.884,350.717,310.113,350.717z M55.358,323.438c1.928,2.1,4.027,4.664,5.919,7.546
			c-2.146,1.82-4.133,3.813-5.915,5.975c-1.784-2.163-3.772-4.157-5.919-5.977C51.333,328.099,53.432,325.536,55.358,323.438z
			 M28.799,364.201l-0.02-21.666c9.385,3.853,16.028,12.712,16.127,23.001c0.055,5.731,4.717,10.349,10.449,10.349h0.015
			c5.731,0,10.393-4.616,10.449-10.348c0.099-10.293,6.746-19.156,16.134-23.007v21.68c0,13.039-12.178,24.056-26.594,24.056
			C40.962,388.266,28.799,377.251,28.799,364.201z M143.914,491.102H25.607c-3.056-4.236-4.704-9.308-4.704-14.63
			c0-13.827,11.249-25.078,25.078-25.078c5.104,0,10.017,1.528,14.209,4.417c2.667,1.838,6.033,2.337,9.119,1.349
			c3.085-0.987,5.536-3.35,6.638-6.395c5.744-15.873,20.95-26.537,37.836-26.537c22.182,0,40.229,18.046,40.229,40.229
			C154.01,474.428,150.452,483.751,143.914,491.102z M195.692,325.119c-5.065,0-9.144-3.987-9.286-9.078
			c-0.115-4.117-2.638-7.783-6.444-9.361c-1.293-0.536-2.651-0.797-3.999-0.797c-2.62,0-5.2,0.986-7.177,2.854
			c-3.704,3.5-9.411,3.437-12.991-0.144c-3.581-3.581-3.645-9.288-0.145-12.992c2.83-2.995,3.635-7.372,2.057-11.177
			c-1.578-3.806-5.244-6.329-9.362-6.444c-5.09-0.141-9.077-4.22-9.077-9.285c0-5.065,3.987-9.144,9.078-9.286
			c4.118-0.115,7.784-2.638,9.361-6.444c1.577-3.805,0.771-8.184-2.058-11.177c-3.499-3.703-3.436-9.409,0.144-12.99
			c3.581-3.582,9.289-3.644,12.992-0.144c2.994,2.83,7.371,3.634,11.177,2.057c3.806-1.577,6.329-5.243,6.444-9.36
			c0.142-5.092,4.221-9.079,9.286-9.079c5.065,0,9.143,3.987,9.286,9.079c0.115,4.118,2.638,7.784,6.445,9.361
			c3.804,1.577,8.183,0.771,11.177-2.058c3.703-3.5,9.409-3.436,12.989,0.143c3.581,3.583,3.646,9.29,0.146,12.992
			c-2.83,2.995-3.635,7.372-2.058,11.177c1.578,3.806,5.244,6.33,9.361,6.444c5.092,0.142,9.079,4.221,9.079,9.286
			c0,5.066-3.987,9.144-9.078,9.285c-4.118,0.114-7.784,2.637-9.362,6.444c-1.578,3.806-0.772,8.184,2.057,11.177
			c3.499,3.704,3.436,9.411-0.144,12.992c-3.581,3.581-9.287,3.644-12.991,0.145c-2.995-2.83-7.371-3.634-11.177-2.058
			c-3.805,1.578-6.33,5.243-6.444,9.361C204.836,321.132,200.757,325.119,195.692,325.119z M273.07,354.568
			c1.928,2.1,4.027,4.664,5.918,7.546c-2.145,1.819-4.133,3.813-5.915,5.974c-1.784-2.162-3.772-4.157-5.919-5.977
			C269.045,359.23,271.144,356.667,273.07,354.568z M299.665,395.341c0,13.039-12.178,24.056-26.594,24.056
			c-14.398,0-26.56-11.016-26.56-24.065l-0.02-21.666c9.385,3.853,16.028,12.712,16.127,23.001
			c0.055,5.731,4.717,10.349,10.449,10.349h0.015c5.731,0,10.393-4.616,10.449-10.348c0.099-10.293,6.746-19.156,16.134-23.007
			V395.341z"/>
	</g>
</g>
</svg>