<svg fill="hsl(6.9, 74%, 34.7%)" height="512px" width="512px" version="1.1" id="Layer_1" xmlns="http://www.w3.org/2000/svg" xmlns:xlink="http://www.w3.org/1999/xlink" 
	 viewBox="0 0 512.042 512.042" xml:space="preserve">
<g transform="translate(-1)">
	<g>
		<path d="M491.708,469.354c-35.386,0-64-28.614-64-64c0-63.477-46.093-116.081-106.667-126.224v-65.776
			c18.329,0,28.125-21.588,16.055-35.381L187.763,7.306c-8.499-9.714-23.61-9.714-32.11,0L6.32,177.973
			c-12.07,13.794-2.274,35.381,16.055,35.381v149.333c0,11.782,9.551,21.333,21.333,21.333v106.667
			c0,11.782,9.551,21.333,21.333,21.333c11.782,0,21.333-9.551,21.333-21.333V384.021h21.333v106.667
			c0,11.782,9.551,21.333,21.333,21.333c11.782,0,21.333-9.551,21.333-21.333v-21.333h42.667v21.333
			c0,11.782,9.551,21.333,21.333,21.333c11.782,0,21.333-9.551,21.333-21.333V384.021h21.333v106.667
			c0,11.782,9.551,21.333,21.333,21.333c11.782,0,21.333-9.551,21.333-21.333V384.021c11.782,0,21.333-9.551,21.333-21.333v-39.986
			c36.835,9.456,64,42.838,64,82.653c0,58.95,47.717,106.667,106.667,106.667c11.782,0,21.333-9.551,21.333-21.333
			S503.49,469.354,491.708,469.354z M171.708,53.751l102.32,116.937H69.389L171.708,53.751z M278.375,213.354v128H65.042v-128
			H278.375z M193.042,426.687h-42.667v-42.667h42.667V426.687z"/>
	</g>
</g>
</svg>